<mxfile host="app.diagrams.net" modified="2023-08-13T06:05:00.336Z" agent="Mozilla/5.0 (Macintosh; Intel Mac OS X 10_15_7) AppleWebKit/537.36 (KHTML, like Gecko) Chrome/115.0.0.0 Safari/537.36" version="21.6.8" etag="T6RR04gciFXNhYP_zl7M" type="github">
  <diagram name="Page-1" id="K6nsY9RtV3NdQBf92T3O">
    <mxGraphModel>
      <root>
        <mxCell id="0" />
        <mxCell id="1" parent="0" />
      </root>
    </mxGraphModel>
  </diagram>
</mxfile>
